<svg width="60" height="60" viewBox="0 0 60 60" fill="none" xmlns="http://www.w3.org/2000/svg">
<path fill-rule="evenodd" clip-rule="evenodd" d="M56.6065 30C56.6065 15.3283 44.6711 3.39623 30.0015 3.39623C15.3291 3.39623 3.39364 15.3283 3.39364 30C3.39364 44.6717 15.3291 56.6038 30.0015 56.6038C44.6711 56.6038 56.6065 44.6717 56.6065 30ZM60 30C60 46.5425 46.5418 60 30.0014 60C13.4582 60 0 46.5425 0 30C0 13.4575 13.4582 0 30.0014 0C46.5418 0 60 13.4575 60 30ZM41.6821 21.8574C42.3444 22.5169 42.3444 23.5952 41.6821 24.2574L27.7937 38.1424C27.4626 38.4735 27.0295 38.6405 26.5937 38.6405C26.1606 38.6405 25.7276 38.4735 25.3964 38.1424L18.3206 31.0669C17.6555 30.4074 17.6555 29.3291 18.3206 28.6669C18.9829 28.0046 20.0556 28.0046 20.7179 28.6669L26.5937 34.5395L39.282 21.8574C39.9443 21.1952 41.017 21.1952 41.6821 21.8574Z" fill="#A3A7AA"/>
</svg>