<svg width="62" height="62" viewBox="0 0 62 62" fill="none" xmlns="http://www.w3.org/2000/svg">
<path fill-rule="evenodd" clip-rule="evenodd" d="M36.1375 57.9177C48.4056 44.1724 48.4056 17.973 36.1375 4.22778C48.8418 6.66162 58.3212 18.1417 58.3212 31.0727C58.3212 44.0038 48.8418 55.4867 36.1375 57.9177ZM30.9876 57.9965C22.9824 51.7592 20.2665 40.1745 20.377 30.5176C20.441 25.2254 21.357 19.8896 23.3401 14.9695C24.2328 12.7596 25.3465 10.6224 26.7306 8.67704C27.3558 7.79888 28.0362 6.95561 28.7777 6.1705C29.1266 5.7983 29.4901 5.44064 29.8681 5.09461C30.7695 4.27461 30.723 4.14957 31.8076 4.83C35.3174 7.03703 37.664 12.3031 39.0336 16.0047C40.8626 20.9626 41.6506 26.2926 41.5953 31.5644C41.5023 40.9131 38.7224 51.9773 30.9876 57.9965ZM3.65438 31.0727C3.65438 18.1446 13.1339 6.66162 25.8381 4.22778C13.5671 17.973 13.5671 44.1724 25.8381 57.9177C13.1339 55.4867 3.65438 44.0009 3.65438 31.0727ZM31.0023 0.250003C18.1846 0.244187 6.4138 8.49947 2.023 20.5349C-2.5161 32.9745 1.63917 47.2548 12.0637 55.3851C21.7525 62.9454 35.3814 63.9777 46.088 57.9381C57.4459 51.5264 63.6716 38.29 61.2959 25.4549C58.6323 11.0496 45.6489 0.255819 31.0023 0.250003Z" fill="#383836"/>
</svg>