<svg width="63" height="62" viewBox="0 0 63 62" fill="none" xmlns="http://www.w3.org/2000/svg">
<path fill-rule="evenodd" clip-rule="evenodd" d="M46.7932 32.3144C46.0559 33.9098 44.7685 35.2818 43.487 36.5262C40.7573 39.1803 37.7554 41.6169 34.7359 43.8301C32.2549 40.3986 29.3759 37.3442 26.1633 34.7365C25.4085 34.1244 24.3025 34.2318 23.691 34.9801C23.0766 35.7227 23.1878 36.8192 23.9368 37.4283C26.9123 39.8446 29.5777 42.6727 31.8804 45.8548C28.8551 47.9346 25.8883 49.7794 23.2492 51.3719C20.8033 52.8483 17.5498 54.7251 14.0651 56.1174C12.2862 56.8339 10.3845 57.5649 8.45635 57.9739C7.58446 58.1566 4.93953 58.7222 4.24611 58.0464C4.19344 57.9942 4.11737 57.8926 4.06471 57.6722C3.89501 56.9905 4.17882 56.0797 4.50358 55.2008C5.58028 52.3175 7.011 49.5996 8.14036 47.5546C9.0064 45.9766 9.89292 44.4364 10.7941 42.9309C12.7895 44.448 14.6298 46.2319 16.2829 48.2537C16.6311 48.6801 17.1372 48.8976 17.6492 48.8976C18.0354 48.8976 18.4275 48.7729 18.7552 48.5089C19.5071 47.9056 19.6212 46.8091 19.0127 46.0607C17.105 43.7286 14.9633 41.6778 12.6344 39.949C16.8593 33.2948 21.403 27.45 26.216 22.484C28.2582 23.7893 30.2156 25.2773 32.0618 26.9365C33.3403 28.0591 34.5692 29.3151 35.8243 30.7683C36.1725 31.1686 36.6641 31.3746 37.1614 31.3746C37.5623 31.3746 37.969 31.2383 38.2996 30.9569C39.0369 30.3303 39.1217 29.2339 38.4927 28.5029C37.1322 26.9307 35.7922 25.5674 34.4083 24.3462C32.6206 22.7392 30.7276 21.2744 28.7527 19.972C29.1886 19.5601 29.6275 19.1511 30.0664 18.7508C33.2292 15.8791 36.2427 15.6964 39.2885 18.1881C40.2189 18.9481 41.0469 19.8415 41.8691 20.8045C41.872 20.8103 41.8749 20.8132 41.8808 20.819C41.8866 20.8248 41.8925 20.8306 41.8983 20.8393C41.9012 20.8422 41.9071 20.848 41.91 20.8538C41.913 20.8567 41.9159 20.8596 41.9159 20.8625L41.9217 20.8654C42.2523 21.2541 42.583 21.6544 42.9194 22.0605L44.0781 23.447C45.0172 24.558 45.9038 25.6051 46.5533 26.7596C47.5305 28.5087 47.6183 30.5305 46.7932 32.3144ZM60.6879 17.4028L48.3527 17.806L59.6259 8.64277C60.3778 8.03363 60.4861 6.93717 59.8716 6.19169C59.2572 5.44912 58.1513 5.33889 57.3993 5.95094L45.7341 15.4362L47.9373 2.28157C48.0953 1.33015 47.4487 0.433836 46.4919 0.277199C45.5176 0.106059 44.6311 0.761613 44.4731 1.70724L42.0827 15.9815C41.9013 15.8191 41.7141 15.6595 41.5239 15.5029C37.1527 11.9292 32.1116 12.1758 27.6965 16.1845C19.3492 23.7698 11.7333 33.7627 5.05664 45.8904C3.87461 48.0369 2.36782 50.8999 1.21213 53.9949C0.691333 55.3931 0.26124 56.9072 0.650372 58.4968C0.846401 59.2858 1.21505 59.9559 1.75048 60.4954C1.7534 60.4983 1.75633 60.5012 1.75925 60.5041C2.80377 61.5396 4.23741 61.85 5.6418 61.85C6.97304 61.85 8.2721 61.5715 9.1908 61.3801C11.3969 60.9102 13.4566 60.1183 15.3818 59.3467C19.1005 57.8587 22.5149 55.892 25.075 54.3488C31.3245 50.575 39.3471 45.4263 45.9419 39.0158C47.4633 37.5365 49.0081 35.8773 49.9853 33.7656C51.2815 30.9635 51.1498 27.7931 49.6225 25.0693C48.8384 23.6741 47.8436 22.4848 46.8752 21.3391L60.802 20.8837C61.7734 20.8517 62.5312 20.0483 62.499 19.0852C62.4668 18.1251 61.5511 17.4202 60.6879 17.4028Z" fill="#383836"/>
</svg>