<svg width="42" height="42" viewBox="0 0 42 42" fill="none" xmlns="http://www.w3.org/2000/svg">
<path fill-rule="evenodd" clip-rule="evenodd" d="M29.3224 12.2638C29.8802 12.2165 30.36 12.6436 30.36 13.1876V37.9474C30.36 39.8688 29.2862 41.55 26.3346 41.55H16.4714C13.586 41.55 11.64 40.1688 11.64 37.2271V24.3188C11.64 22.998 12.1768 22.1153 13.3846 21.1754C14.088 20.6277 17.0778 18.0536 19.5878 15.8927C21.1053 14.5862 22.4481 13.4301 23.0032 12.965C23.1473 12.8442 23.3273 12.773 23.5169 12.7569L29.3224 12.2638ZM27.7747 14.7369C28.0488 14.7212 28.28 14.933 28.28 15.1998V36.4806C28.28 38.1038 27.4449 39.5242 25.1491 39.5242H17.4778C15.2336 39.5242 13.72 38.3573 13.72 35.8721V24.9668C13.72 23.8509 14.1375 23.1052 15.0769 22.3112C15.5326 21.9258 17.4876 20.292 19.441 18.6596C21.195 17.1938 22.9478 15.729 23.6125 15.1702C23.7734 15.0349 23.9755 14.9546 24.188 14.9424L27.7747 14.7369ZM16.84 23.8239V35.9788H25.16C25.7344 35.9788 26.2 35.5253 26.2 34.9659C26.2 34.4065 25.7344 33.953 25.16 33.953H18.92V25.8498H25.16C25.7344 25.8498 26.2 25.3963 26.2 24.8369C26.2 24.2774 25.7344 23.8239 25.16 23.8239H16.84Z" fill="#383836"/>
<path fill-rule="evenodd" clip-rule="evenodd" d="M18.799 1.67728C18.799 1.16516 19.2264 0.75 19.7536 0.75H29.2989C29.8261 0.75 30.2535 1.16516 30.2535 1.67728V10.1228C30.2535 10.8678 29.3948 11.3086 28.7612 10.8889L25.0206 8.41134L21.4182 11.4734C21.1206 11.7264 20.6683 11.6971 20.408 11.408C20.1476 11.119 20.1778 10.6796 20.4753 10.4267L23.7985 7.60191L19.2159 4.56659C18.9551 4.39386 18.799 4.10706 18.799 3.80044V1.67728ZM20.7081 3.06819C20.7081 2.81213 20.9218 2.60455 21.1854 2.60455H27.8671C28.1307 2.60455 28.3444 2.81213 28.3444 3.06819V7.75046C28.3444 8.12378 27.9134 8.34401 27.5967 8.13252L20.915 3.67C20.7855 3.58351 20.7081 3.44062 20.7081 3.28794V3.06819Z" fill="#383836"/>
</svg>