<svg width="42" height="43" viewBox="0 0 42 43" fill="none" xmlns="http://www.w3.org/2000/svg">
<path fill-rule="evenodd" clip-rule="evenodd" d="M16.1097 7.83307C15.5486 5.72441 16.2654 3.26786 18.0294 1.26415C18.4541 0.784114 19.1843 0.743301 19.657 1.16892C20.1335 1.59843 20.1739 2.335 19.7531 2.81698C18.7903 3.90726 17.9141 5.63889 18.3349 7.2267C18.5098 7.87388 18.8787 8.4919 19.2707 9.14491C19.7684 9.9806 20.3372 10.929 20.5505 12.0854C20.8983 13.9861 20.5121 16.0772 19.3687 18.4813C19.1727 18.8953 18.7596 19.1402 18.3292 19.1402C18.162 19.1402 17.991 19.1032 17.8315 19.0255C17.2569 18.7437 17.0148 18.0479 17.2915 17.4668C18.2158 15.5292 18.5386 13.9083 18.2831 12.511C18.1485 11.7725 17.7354 11.0825 17.2954 10.3518C16.8419 9.58802 16.3692 8.79897 16.1097 7.83307ZM23.8901 12.1042C22.8697 10.0597 22.9101 6.90935 24.7414 5.18549C25.2064 4.74627 25.9346 4.77154 26.3708 5.2438C26.8051 5.71606 26.7801 6.45458 26.3132 6.8938C25.3351 7.81306 25.337 9.82455 25.95 11.0548C26.048 11.2549 26.1537 11.4473 26.2575 11.6417C26.5707 12.2228 26.8954 12.8233 27.0914 13.5385C27.6276 15.4975 26.9146 17.4624 26.3324 18.7684C26.1422 19.1998 25.7214 19.4544 25.2813 19.4544C25.1218 19.4544 24.9623 19.4214 24.8086 19.3514C24.2283 19.0871 23.9689 18.3972 24.2321 17.8083C24.922 16.2574 25.1237 15.0972 24.8701 14.1585C24.7452 13.7037 24.4973 13.245 24.236 12.7592C24.1168 12.5435 23.9977 12.3258 23.8901 12.1042ZM10.322 12.1042C9.30167 10.0578 9.34395 6.90935 11.1752 5.18549C11.6402 4.74627 12.3685 4.77154 12.8028 5.2438C13.2371 5.71606 13.2102 6.45458 12.7432 6.8938C11.767 7.81306 11.767 9.82455 12.382 11.0567C12.4761 11.253 12.5818 11.4435 12.6875 11.6378C13.0026 12.2208 13.3293 12.8214 13.5234 13.5385C14.0595 15.4995 13.3485 17.4624 12.7663 18.7684C12.5722 19.1998 12.1533 19.4544 11.7132 19.4544C11.5538 19.4544 11.3943 19.4214 11.2405 19.3514C10.6602 19.0871 10.4008 18.3972 10.6641 17.8083C11.3539 16.2594 11.5576 15.0972 11.3001 14.1585C11.1771 13.7037 10.9273 13.2431 10.6641 12.7572C10.5469 12.5415 10.4316 12.3258 10.322 12.1042ZM35.9885 28.072L35.7983 28.8183C35.1987 31.0882 33.3848 32.781 31.1846 33.2572L32.9428 26.4822H34.7664C35.168 26.4822 35.535 26.6649 35.7791 26.9836C36.0116 27.2965 36.0904 27.6872 35.9885 28.072ZM30.9463 24.9548C30.9251 25.019 30.9097 25.085 30.9001 25.153L28.7806 33.335C27.8006 37.1073 24.4225 39.7446 20.5678 39.7446H16.3615C12.5068 39.7446 9.1287 37.1073 8.1487 33.335L6.00807 25.0792C5.90814 24.6944 5.98693 24.294 6.22713 23.9792C6.46732 23.6644 6.83242 23.4836 7.22634 23.4836H29.703C30.0969 23.4836 30.4601 23.6644 30.7003 23.9792C30.9136 24.2591 31.0001 24.6089 30.9463 24.9548ZM37.6084 25.5672C36.9282 24.6674 35.8905 24.1504 34.7664 24.1504H33.2176C33.1234 23.579 32.889 23.031 32.5258 22.5529C31.8456 21.6628 30.8176 21.1536 29.703 21.1536H7.2264C6.11189 21.1536 5.08384 21.6628 4.40361 22.5529C3.72529 23.4449 3.49663 24.5819 3.77717 25.6722L5.91781 33.928C7.16491 38.7264 11.4596 42.075 16.3616 42.075H20.5679C24.8395 42.075 28.6462 39.5349 30.3814 35.7082C33.9805 35.508 37.0857 32.9796 38.0273 29.4133L38.2175 28.669C38.5039 27.5884 38.2829 26.4573 37.6084 25.5672Z" fill="#383836"/>
</svg>