<svg width="42" height="42" viewBox="0 0 42 42" fill="none" xmlns="http://www.w3.org/2000/svg">
<path fill-rule="evenodd" clip-rule="evenodd" d="M23.1738 14.3633V4.93774C23.1738 4.31564 23.6915 3.81006 24.3305 3.81006C24.9675 3.81006 25.4833 4.31564 25.4833 4.93774V14.3633C25.4833 14.9873 24.9675 15.491 24.3305 15.491C23.6915 15.491 23.1738 14.9873 23.1738 14.3633ZM30.7896 4.93774V16.0905C30.7896 18.017 29.1826 19.5863 27.2099 19.5863H25.4835V37.3624C25.4835 37.9864 24.9677 38.4901 24.3306 38.4901C23.6916 38.4901 23.1739 37.9864 23.1739 37.3624V19.5863H21.4495C19.4748 19.5863 17.8678 18.017 17.8678 16.0905V4.93774C17.8678 4.31564 18.3874 3.81006 19.0244 3.81006C19.6615 3.81006 20.1792 4.31564 20.1792 4.93774V16.0905C20.1792 16.7746 20.747 17.331 21.4495 17.331H27.2099C27.9104 17.331 28.4801 16.7746 28.4801 16.0905V4.93774C28.4801 4.31564 28.9959 3.81006 29.6329 3.81006C30.2719 3.81006 30.7896 4.31564 30.7896 4.93774ZM39.0922 22.4956H35.8204V10.9988C35.8204 9.00661 37.2099 7.32448 39.0922 6.8283V22.4956ZM40.2452 4.42273C36.5307 4.42273 33.5129 7.3735 33.5129 10.999V23.6234C33.5129 24.2455 34.0287 24.7511 34.6677 24.7511H39.0924V37.289C39.0924 37.9111 39.6062 38.4167 40.2452 38.4167C40.8842 38.4167 41.4 37.9111 41.4 37.289V5.55229C41.4 4.9283 40.8842 4.42273 40.2452 4.42273ZM8.19824 19.6016C5.28052 19.6016 2.90747 16.5644 2.90747 12.8336C2.90747 9.10287 5.28052 6.06565 8.19824 6.06565C11.116 6.06565 13.489 9.10287 13.489 12.8336C13.489 16.5644 11.116 19.6016 8.19824 19.6016ZM8.19839 3.81006C4.0085 3.81006 0.599998 7.85844 0.599998 12.8334C0.599998 17.3422 3.40032 21.0899 7.0417 21.7534V37.3624C7.0417 37.9864 7.56134 38.4901 8.19839 38.4901C8.83544 38.4901 9.35316 37.9864 9.35316 37.3624V21.7534C12.9984 21.0899 15.7987 17.3422 15.7987 12.8334C15.7987 7.85844 12.3883 3.81006 8.19839 3.81006Z" fill="#383836"/>
</svg>