<svg width="84" height="84" viewBox="0 0 84 84" fill="none" xmlns="http://www.w3.org/2000/svg">
<path fill-rule="evenodd" clip-rule="evenodd" d="M78.9995 47.8851C79.3342 49.1289 78.5946 50.4077 77.349 50.7419L66.8116 53.5598L76.878 59.3628C77.9952 60.008 78.3805 61.4345 77.7344 62.5461C77.2984 63.2963 76.516 63.716 75.7063 63.716C75.3131 63.716 74.9122 63.615 74.5424 63.4012L64.4799 57.5982L67.2982 68.1237C67.633 69.3674 66.8973 70.6423 65.6477 70.9766C65.4492 71.031 65.2429 71.0582 65.0444 71.0582C64.0089 71.0582 63.0669 70.3702 62.7905 69.3286L58.7617 54.3022L44.3356 45.9884V62.6161L55.3517 73.6157C56.2626 74.5252 56.2626 76.0022 55.3517 76.9117C54.8963 77.3665 54.2968 77.5958 53.7012 77.5958C53.1057 77.5958 52.5062 77.3665 52.0508 76.9117L44.3356 69.2081V80.8179C44.3356 82.1044 43.2884 83.15 42 83.15C40.7115 83.15 39.6683 82.1044 39.6683 80.8179V69.2081L31.9492 76.9117C31.0383 77.8251 29.563 77.8251 28.6483 76.9117C27.7374 76.0022 27.7374 74.5252 28.6483 73.6157L39.6683 62.6161V45.9884L25.2383 54.3022L21.2094 69.3286C20.9331 70.3702 19.991 71.0582 18.9556 71.0582C18.7571 71.0582 18.5547 71.031 18.3522 70.9766C17.1066 70.6423 16.367 69.3674 16.7018 68.1237L19.5239 57.5982L9.45758 63.4012C9.08778 63.615 8.69073 63.716 8.29368 63.716C7.48401 63.716 6.70159 63.2963 6.26562 62.5461C5.61944 61.4345 6.00481 60.008 7.122 59.3628L17.1883 53.5598L6.65099 50.7419C5.40534 50.4077 4.66574 49.1289 5.00051 47.8851C5.33138 46.6452 6.61206 45.9068 7.8616 46.2371L22.9105 50.2638L37.3327 41.95L22.9105 33.6323L7.8616 37.6629C7.65918 37.7134 7.45287 37.7406 7.25434 37.7406C6.2228 37.7406 5.28078 37.0526 5.00051 36.011C4.66574 34.7672 5.40534 33.4885 6.65099 33.1542L17.1883 30.3363L7.122 24.5333C6.00481 23.892 5.61944 22.4616 6.26562 21.35C6.91179 20.2345 8.3326 19.8458 9.45758 20.4949L19.5239 26.2979L16.7018 15.7763C16.367 14.5287 17.1066 13.2538 18.3522 12.9195C19.6135 12.5931 20.8786 13.3277 21.2094 14.5675L25.2383 29.5939L39.6683 37.9116V21.2839L28.6483 10.2843C27.7374 9.37091 27.7374 7.89392 28.6483 6.98441C29.563 6.07491 31.0383 6.07491 31.9492 6.98441L39.6683 14.688V3.08208C39.6683 1.79166 40.7115 0.75 42 0.75C43.2884 0.75 44.3356 1.79166 44.3356 3.08208V14.688L52.0508 6.98441C52.9655 6.07491 54.4369 6.07491 55.3517 6.98441C56.2626 7.89392 56.2626 9.37091 55.3517 10.2843L44.3356 21.2839V37.9116L58.7617 29.5939L62.7905 14.5675C63.1214 13.3277 64.406 12.5931 65.6477 12.9195C66.8973 13.2538 67.633 14.5287 67.2982 15.7763L64.4799 26.2979L74.5424 20.4949C75.6713 19.8458 77.0921 20.2345 77.7344 21.35C78.3805 22.4616 77.9952 23.892 76.878 24.5333L66.8116 30.3363L77.349 33.1542C78.5946 33.4885 79.3342 34.7672 78.9995 36.011C78.7231 37.0526 77.7811 37.7406 76.7456 37.7406C76.5471 37.7406 76.3408 37.7134 76.1423 37.6629L61.0895 33.6323L46.6673 41.95L61.0895 50.2638L76.1423 46.2371C77.4074 45.9068 78.6686 46.6452 78.9995 47.8851Z" fill="#383836"/>
</svg>