<svg width="84" height="84" viewBox="0 0 84 84" fill="none" xmlns="http://www.w3.org/2000/svg">
<path fill-rule="evenodd" clip-rule="evenodd" d="M75.3271 40.1682C75.1739 33.7133 71.1496 28.1356 65.6756 25.9597L60.2688 24.8832H60.0483H60.0409L72.2369 4.24277C72.8796 3.15482 72.5434 1.74125 71.4822 1.08235C70.4247 0.423448 69.0459 0.775883 68.407 1.86001L54.0362 26.1742C53.0722 26.5918 52.153 27.1204 51.3011 27.7372C47.0713 20.8953 39.6281 16.6125 31.6095 16.6125C18.879 16.6125 8.50266 27.1434 8.30088 40.1682H6.99309C5.70398 40.1682 4.50829 40.7735 3.71614 41.8231C2.93894 42.8574 2.67364 44.1599 2.99125 45.4164C5.85718 56.6599 13.1547 66.0799 23.0827 71.4545V77.0207C23.0827 80.3995 25.7655 83.15 29.0611 83.15H54.9741C58.2697 83.15 60.9526 80.3995 60.9526 77.0207V71.4507C70.8806 66.0186 78.1519 56.6062 81.0104 45.4126C81.3242 44.1637 81.0627 42.8574 80.2855 41.8269C79.4896 40.7735 78.2939 40.1682 77.0011 40.1682H75.3271ZM16.3306 40.1679H12.7809C12.9827 29.6792 21.3488 21.2092 31.6094 21.2092C38.5033 21.2092 44.6536 24.9213 47.9829 30.9893C47.0861 32.173 46.3687 33.4678 45.8419 34.8469C43.6111 29.0203 38.0736 24.883 31.6094 24.883C23.3105 24.883 16.5324 31.7057 16.3306 40.1679ZM60.9192 29.551C60.9167 29.5504 60.9141 29.5496 60.9115 29.5482C60.8218 29.5406 60.7284 29.5291 60.6424 29.5099C60.3771 29.4793 60.1866 29.4793 60.0483 29.4793C58.8041 29.4793 57.5262 29.7206 56.3566 30.1765C54.8284 30.7396 53.4571 31.6629 52.3398 32.8542L52.295 32.9002C50.4342 34.8731 49.3805 37.4359 49.2908 40.1673H52.8106C53.0049 36.2292 56.1773 33.0803 60.0483 33.0803C63.9418 33.0803 67.1254 36.2292 67.3197 40.1673H70.8395C70.6527 34.5819 66.3668 29.9543 60.9339 29.5521L60.9292 29.552C60.9259 29.552 60.9226 29.5517 60.9192 29.551ZM62.8244 40.1694C62.6488 38.7482 61.4905 37.6832 60.0482 37.6832C58.6507 37.6832 57.4886 38.7673 57.3055 40.1694H62.8244ZM72.9397 44.7682L76.5716 44.6418C73.8813 54.7322 67.1368 63.1523 57.9972 67.8412C57.8029 67.9063 57.6236 67.9983 57.4554 68.1094C51.122 71.2238 43.9516 72.2811 37.1249 71.3771C34.8082 71.0361 32.6298 70.5151 30.6382 69.8218C29.2669 69.3544 27.9143 68.7874 26.5916 68.1209C26.4197 68.0021 26.2291 67.9063 26.0273 67.8374C16.9176 63.2098 10.1806 54.8394 7.46043 44.7682H72.9397ZM56.4729 77.021V73.5541C51.8695 75.3737 47.0157 76.2969 42.0013 76.2969C40.1405 76.2969 38.3432 76.1744 36.516 75.9292C33.9004 75.5461 31.4493 74.96 29.2111 74.1823C28.6581 73.9946 28.1125 73.7878 27.5633 73.5732V77.021C27.5633 77.8676 28.2358 78.5533 29.0616 78.5533H54.9746C55.8003 78.5533 56.4729 77.8676 56.4729 77.021ZM42.4042 40.1673C42.2062 34.241 37.4421 29.4793 31.6093 29.4793C25.7803 29.4793 21.0125 34.241 20.8182 40.1673H24.3754C24.5697 36.2292 27.7383 33.0803 31.6093 33.0803C35.4804 33.0803 38.6527 36.2292 38.847 40.1673H42.4042ZM31.6092 37.6832C33.0104 37.6832 34.1687 38.7673 34.3481 40.1694H28.874C29.0534 38.7673 30.208 37.6832 31.6092 37.6832ZM59.6599 61.9047C63.0564 59.3533 65.8401 55.9707 67.7196 52.1284C68.2726 50.9907 67.8243 49.6077 66.7182 49.0408C65.6197 48.4738 64.2633 48.9335 63.7066 50.0674C62.1484 53.2662 59.8355 56.0742 57.0107 58.1964C56.013 58.9473 55.7963 60.3838 56.5249 61.4067C56.9658 62.0234 57.6459 62.349 58.3372 62.349C58.7968 62.349 59.2638 62.2035 59.6599 61.9047Z" fill="#383836"/>
</svg>