<svg width="84" height="59" viewBox="0 0 84 59" fill="none" xmlns="http://www.w3.org/2000/svg">
<path fill-rule="evenodd" clip-rule="evenodd" d="M78.4653 25.3299C78.0284 26.6343 77.2079 27.8921 76.0144 29.0962L66.4736 15.6364C67.9228 15.7834 69.3472 15.9805 70.7609 16.2815C74.3733 17.0555 78.2344 19.3131 78.6891 22.2946C78.6891 22.3663 78.6926 22.4272 78.6962 22.4881C78.6962 22.5025 78.6997 22.5132 78.6997 22.5276C78.7033 22.5777 78.7104 22.6243 78.7139 22.6709C78.7317 22.8107 78.7601 22.9468 78.7885 23.0723C78.8454 23.7925 78.7388 24.5451 78.4653 25.3299ZM76.4407 35.4554L76.2489 35.8173C73.6559 40.3792 69.3011 44.382 64.2962 46.7973C54.8051 51.4129 26.9961 60.4398 12.4576 46.8869C9.66569 44.278 8.14186 41.1568 7.33909 38.935C8.57166 40.2537 9.94985 41.4184 11.4666 42.4182C15.4378 44.9804 20.3183 46.4282 26.8043 46.9585L28.1044 47.0732C29.7987 47.1807 31.493 47.2309 33.1803 47.2309C35.9757 47.2309 38.7534 47.0875 41.4778 46.808C45.8007 46.3923 50.191 45.586 54.5565 44.4071C58.7231 43.246 62.6836 41.8018 66.3067 40.1212C69.7024 38.5659 72.8815 36.7849 75.6521 34.8928C76.0855 34.6348 76.4762 34.3338 76.8598 34.022L76.8776 34.0112C76.9309 33.9682 76.9841 33.9252 77.0374 33.8822C77.1191 33.8177 77.2044 33.7532 77.2861 33.6851C77.0374 34.2621 76.7604 34.8534 76.4407 35.4554ZM5.52725 22.4417C5.53435 22.3844 5.5379 22.3199 5.54145 22.259C5.6196 21.1481 5.80075 20.0658 6.09202 19.0159L22.4208 42.0508C18.9469 41.3878 16.1337 40.3307 13.7787 38.8077C11.6758 37.4244 9.88561 35.6291 8.46834 33.4826C7.41694 31.8736 6.63193 30.1427 6.13465 28.3366C5.59118 26.3728 5.38161 24.3589 5.52725 22.4417ZM13.2359 8.84554L37.3436 42.821C34.3741 42.9787 31.3762 42.9643 28.4138 42.7887L28.1651 42.7672L8.09248 14.4538C9.38543 12.3072 11.133 10.408 13.2359 8.84554ZM24.6305 4.6344L50.4219 41.0072C47.7081 41.6272 44.9873 42.093 42.2877 42.4012L16.9119 6.63401C19.3486 5.47653 21.97 4.79566 24.6305 4.6344ZM42.11 9.57625L42.7742 9.90235L62.1613 37.2518C59.8312 38.223 57.3803 39.0938 54.8441 39.8535L30.1751 5.06459C34.2316 5.89239 38.0678 7.68773 42.11 9.57625ZM54.6984 14.3239C56.787 14.7754 58.8899 15.0048 60.911 15.1803L72.6505 31.7434C70.6223 33.0765 68.4413 34.3164 66.1254 35.4524L50.23 13.0266C51.6792 13.5427 53.1675 13.9906 54.6984 14.3239ZM83.0651 23.2978C83.058 23.0183 83.0437 22.746 83.0118 22.4736L82.9301 21.9827C82.0989 16.2813 76.3339 13.0812 71.6417 12.0742C68.697 11.4471 65.7417 11.2321 62.8788 11.0278L62.2465 10.9812C60.0762 10.8021 57.778 10.5906 55.5935 10.1176C52.1906 9.37583 48.9938 7.99259 45.4559 6.43375L45.3032 6.3585C45.1505 6.26174 44.9942 6.1829 44.8272 6.12915L43.9037 5.67763C39.3606 3.55259 34.6613 1.35589 29.5428 0.589015C28.3635 0.395505 27.0812 0.29875 25.7172 0.295166H25.6071C21.0818 0.345335 16.6275 1.64257 12.7274 4.0292C12.7131 4.03995 12.6989 4.04712 12.6812 4.05429L12.6705 4.06146C8.76326 6.43733 5.65522 9.73418 3.69804 13.5686C2.32695 16.1236 1.52063 18.9044 1.3004 21.8322C0.561577 24.8746 0.430151 30.6548 2.38733 37.0443C2.43706 37.3453 3.65186 44.5302 9.56603 50.0417C16.1267 56.1624 24.9215 58.2552 33.7555 58.2552C46.859 58.2552 60.0407 53.6432 66.1395 50.6724C71.9898 47.8558 76.8916 43.3369 80.0813 37.7C80.2447 37.4026 80.3193 37.1983 80.3122 37.2306C83.2782 31.6761 83.4132 26.8204 83.0651 23.2978Z" fill="#383836"/>
</svg>