<svg width="63" height="63" viewBox="0 0 63 63" fill="none" xmlns="http://www.w3.org/2000/svg">
<path fill-rule="evenodd" clip-rule="evenodd" d="M45.7489 58.8651H33.2538V26.8006H49.6949V54.9141C49.6949 57.0929 47.9249 58.8651 45.7489 58.8651ZM13.308 54.9141V26.8006H29.7462V58.8651H17.254C15.078 58.8651 13.308 57.0929 13.308 54.9141ZM22.4441 12.3558H38.1316L30.5814 23.2876H14.8968L22.4441 12.3558ZM23.2825 8.84366H39.7236V3.88366H23.2825V8.84366ZM48.106 23.289H34.8427L41.4729 13.6878L48.106 23.289ZM53.2 24.8124C53.2 24.6427 53.1124 24.3737 52.9839 24.1865C52.7736 23.8824 43.2284 10.0523 43.2284 10.0523V2.12972C43.2284 1.1617 42.4427 0.375 41.473 0.375H21.527C20.5602 0.375 19.7745 1.1617 19.7745 2.12972V10.0523L10.1125 24.0461C10.0891 24.0812 10.0921 24.128 10.0716 24.1631C9.95479 24.362 9.88177 24.5755 9.84672 24.8124C9.84088 24.8708 9.81751 24.9235 9.81459 24.982C9.81459 25.0025 9.79999 25.0229 9.79999 25.0463V54.9145C9.79999 59.0293 13.1443 62.375 17.2538 62.375H45.7491C49.8557 62.375 53.2 59.0293 53.2 54.9145V24.8124Z" fill="#383836"/>
</svg>