<svg width="34" height="42" viewBox="0 0 34 42" fill="none" xmlns="http://www.w3.org/2000/svg">
<path fill-rule="evenodd" clip-rule="evenodd" d="M29.6461 32.2622C29.3544 36.1746 26.0825 39.2383 22.1967 39.2383H11.8052C7.91747 39.2383 4.64559 36.1746 4.35386 32.2622L2.9696 13.574C2.95054 13.2873 3.04397 13.014 3.23654 12.8042C3.43102 12.5945 3.69415 12.479 3.97824 12.479H8.49901V16.757C8.49901 17.3959 9.01 17.9117 9.64302 17.9117C10.2741 17.9117 10.787 17.3959 10.787 16.757V12.479H23.2129V16.757C23.2129 17.3959 23.7258 17.9117 24.3589 17.9117C24.99 17.9117 25.5029 17.3959 25.5029 16.757V12.479H30.0236C30.3077 12.479 30.569 12.5945 30.7634 12.8042C30.956 13.014 31.0513 13.2873 31.0304 13.574L29.6461 32.2622ZM10.787 9.33076C10.787 5.87448 13.5746 3.06095 17.0009 3.06095C20.4272 3.06095 23.2129 5.87448 23.2129 9.33076V10.1698H10.787V9.33076ZM32.4395 11.2343C31.8179 10.5569 30.937 10.1701 30.0237 10.1701H25.5029V9.33107C25.5029 4.6008 21.6876 0.75 17.001 0.75C12.3124 0.75 8.49905 4.6008 8.49905 9.33107V10.1701H3.97828C3.06307 10.1701 2.18218 10.5569 1.5606 11.2343C0.939019 11.9098 0.620602 12.8258 0.689243 13.7457L2.0735 32.4359C2.45293 37.5472 6.72773 41.55 11.8053 41.55H22.1967C27.2723 41.55 31.549 37.5472 31.9266 32.4359L33.3108 13.7457C33.3795 12.8258 33.063 11.9098 32.4395 11.2343Z" fill="#383836"/>
</svg>