<svg width="42" height="42" viewBox="0 0 42 42" fill="none" xmlns="http://www.w3.org/2000/svg">
<path fill-rule="evenodd" clip-rule="evenodd" d="M11.9627 3.80275C11.2439 4.42374 10.6289 5.41879 10.3475 6.65557C10.066 7.89234 10.1891 9.05821 10.5675 9.93316C10.9461 10.8084 11.5424 11.329 12.2041 11.4821C12.8657 11.6353 13.6275 11.429 14.3466 10.8078C15.0654 10.1868 15.6803 9.19175 15.9618 7.95498C16.2433 6.71821 16.1202 5.55234 15.7418 4.67739C15.3632 3.80218 14.7669 3.28155 14.1052 3.12841C13.4436 2.97527 12.6818 3.18157 11.9627 3.80275ZM10.6473 2.25418C11.7267 1.32167 13.1246 0.809379 14.5575 1.14101C15.9904 1.47265 17.0269 2.54837 17.5951 3.86223C18.1635 5.17635 18.301 6.79226 17.9326 8.4111C17.5641 10.0299 16.7417 11.4237 15.662 12.3564C14.5825 13.2889 13.1846 13.8012 11.7518 13.4695C10.3189 13.1379 9.28239 12.0622 8.71416 10.7483C8.14583 9.4342 8.00832 7.81828 8.37674 6.19945C8.74516 4.58061 9.56761 3.18687 10.6473 2.25418ZM25.1879 4.20807C24.2933 4.66544 23.3877 5.53919 22.7401 6.75133C22.0926 7.96346 21.8672 9.20682 21.9806 10.2118C22.0945 11.2214 22.5272 11.8899 23.1002 12.2012C23.6731 12.5124 24.4647 12.5091 25.3633 12.0497C26.2579 11.5923 27.1635 10.7185 27.8111 9.50629C28.4586 8.29413 28.684 7.05082 28.5707 6.04585C28.4568 5.03641 28.0241 4.36794 27.4511 4.05667C26.8782 3.74538 26.0865 3.74866 25.1879 4.20807ZM24.2736 2.38937C25.5757 1.72366 27.0912 1.54498 28.4101 2.26153C29.7291 2.9781 30.4147 4.35263 30.5797 5.81541C30.7452 7.28267 30.4099 8.94081 29.5911 10.4734C28.7724 12.006 27.5838 13.2005 26.2777 13.8683C24.9756 14.5341 23.4602 14.7129 22.1412 13.9963C20.8222 13.2797 20.1366 11.9051 19.9715 10.4423C19.806 8.97504 20.1413 7.31684 20.96 5.78423C21.7788 4.25162 22.9675 3.05711 24.2736 2.38937ZM36.6109 13.7314C35.6335 13.5041 34.383 13.5893 33.1155 14.1011C31.848 14.6128 30.8847 15.4215 30.3328 16.2662C29.7785 17.1146 29.6858 17.9075 29.9277 18.5168C30.1696 19.1261 30.7793 19.6354 31.7611 19.8636C32.7385 20.0909 33.989 20.0057 35.2565 19.4939C36.524 18.9822 37.4873 18.1736 38.0391 17.3289C38.5934 16.4804 38.6861 15.6876 38.4442 15.0782C38.2023 14.4689 37.5926 13.9597 36.6109 13.7314ZM37.0652 11.7445C38.4878 12.0753 39.7645 12.9178 40.3214 14.3204C40.8782 15.7229 40.5308 17.2212 39.7276 18.4507C38.922 19.6839 37.6107 20.7399 36.008 21.3869C34.4054 22.034 32.7337 22.1824 31.3068 21.8506C29.8842 21.5198 28.6074 20.6773 28.0505 19.2747C27.4937 17.8721 27.8412 16.3738 28.6443 15.1444C29.45 13.9112 30.7613 12.8552 32.364 12.2081C33.9666 11.561 35.6382 11.4127 37.0652 11.7445ZM13.8676 15.9928C17.1132 15.4895 19.8815 15.439 22.7943 17.6463C24.0555 18.6018 24.848 19.9287 25.3799 21.4915C25.9067 23.0393 26.1974 24.8767 26.4212 26.9211L26.4212 26.9213C26.5107 27.7396 26.6669 28.4839 26.8397 29.2093C26.8898 29.4196 26.9428 29.6339 26.9962 29.8501C27.1216 30.3569 27.2494 30.8741 27.3483 31.373C27.6441 32.8656 27.7323 34.4176 27.0204 36.2877L27.0203 36.288C26.1113 38.674 24.1193 40.2477 21.867 40.5183C19.5831 40.7927 17.2072 39.7102 15.5846 37.1582C12.855 32.8663 9.47474 30.2241 4.89346 28.3499L5.2735 27.4052L4.89346 28.3499C2.0456 27.1851 0.415825 25.1641 0.219802 22.9152C0.0246709 20.6765 1.28378 18.5509 3.50122 17.2682C5.41025 16.1636 7.14427 16.0217 8.82336 16.0548C9.25385 16.0633 9.67075 16.0818 10.0832 16.1001C11.3046 16.1543 12.487 16.2067 13.8676 15.9928ZM21.5796 19.2764C19.3262 17.5688 17.2435 17.5323 14.1749 18.0082L14.1747 18.0082C12.5777 18.2557 11.1246 18.1902 9.86493 18.1335C9.48666 18.1165 9.12583 18.1003 8.78381 18.0935C7.27681 18.0638 5.96418 18.1939 4.5074 19.0368L4.5073 19.0369C2.82913 20.0077 2.12137 21.4443 2.23401 22.7366C2.34576 24.0187 3.29833 25.4971 5.65346 26.4604L5.65354 26.4604C10.5845 28.4776 14.3105 31.3778 17.2867 36.0575L17.2868 36.0576C18.5422 38.0322 20.2028 38.6647 21.6279 38.4935C23.0845 38.3186 24.4738 37.2863 25.1327 35.557C25.6639 34.1615 25.6144 33.0285 25.3655 31.7726C25.2763 31.3221 25.1672 30.8813 25.0478 30.3989C24.9917 30.1721 24.9333 29.9361 24.8737 29.6856C24.6924 28.9246 24.5144 28.0861 24.4115 27.1448L25.4163 27.033L24.4115 27.1449C24.4115 27.1449 24.4115 27.1448 24.4115 27.1448C24.1908 25.1301 23.9184 23.4784 23.4674 22.1535C23.0216 20.8436 22.4216 19.9143 21.5797 19.2765L21.5796 19.2764ZM38.1861 26.045C37.3171 25.6661 36.1605 25.5457 34.9349 25.8335C33.7092 26.1213 32.7243 26.7446 32.1108 27.4716C31.497 28.1988 31.2948 28.9679 31.4488 29.6348C31.6028 30.3017 32.1211 30.9016 32.9903 31.2806C33.8592 31.6594 35.0158 31.7799 36.2415 31.4921C37.4671 31.2043 38.452 30.5809 39.0656 29.8539C39.6793 29.1267 39.8815 28.3577 39.7275 27.6908C39.5735 27.0239 39.0552 26.424 38.1861 26.045ZM38.9885 24.1734C40.2933 24.7423 41.3634 25.7843 41.6968 27.2283C42.0302 28.6724 41.5267 30.0839 40.6053 31.1755C39.6838 32.2674 38.3043 33.1013 36.7 33.478C35.0958 33.8547 33.4928 33.7212 32.1878 33.1522C30.883 32.5832 29.813 31.5413 29.4795 30.0972C29.1461 28.6532 29.6497 27.2417 30.571 26.15C31.4925 25.0582 32.8721 24.2242 34.4763 23.8475C36.0806 23.4708 37.6835 23.6044 38.9885 24.1734Z" fill="#383836"/>
</svg>