<svg width="211" height="162" fill="none" xmlns="http://www.w3.org/2000/svg"><path d="M6.284 106.138c2.857 6.45 8.525 12.376 15.154 18.588.504.47 1.014.941 1.538 1.411.192.179.391.352.597.531.477.424.967.855 1.478 1.279h.007c.689.577 1.385 1.154 2.094 1.724a97.989 97.989 0 003.852 2.956l.006.014a123.394 123.394 0 006.861 4.68c1.485.948 3.003 1.863 4.568 2.771 25.615 14.849 66.861 23.347 97.388 15.399a58.731 58.731 0 002.539-.709 17.04 17.04 0 001.061-.312 79.62 79.62 0 004.918-1.69l3.719-1.505c.199-.073.385-.172.584-.252 0 0 0-.013.013-.007h.007c.457-.212.934-.417 1.398-.649.073-.02.146-.06.226-.1a74.415 74.415 0 005.018-2.585 127.166 127.166 0 009.334-5.8c45.29-30.932 48.949-81.857 30.228-99.927-13.569-13.113-22.499-7.81-45.038-3.892a187.302 187.302 0 01-14.067 1.91 49.009 49.009 0 01-12.257-.365c-9.44-1.432-17.912-5.35-26.563-9.4a385.214 385.214 0 00-7.809-3.6c-.497-.212-.987-.437-1.485-.65-2.844-1.232-5.734-2.386-8.73-3.38a63.714 63.714 0 00-3.911-1.207c-6.384-1.816-13.232-2.837-20.875-2.406-1.406.073-2.831.199-4.296.391-2.446.298-4.985.75-7.604 1.379-8.313 1.982-15.24 4.68-20.987 7.928a56.974 56.974 0 00-7.61 5.105C10.546 39.455 6.655 46.17 3.87 53.218c-7.994 20.298-1.789 43.427 2.414 52.92z" fill="#E6F0FF"/><path d="M22.93 42.704l15.458 105.953 136.48-19.921a5.207 5.207 0 004.402-5.906l-13.192-90.408c-.318-2.154-2.214-3.666-4.243-3.374L68.776 42.63c-1.22.179-2.453-.298-3.288-1.273l-6-6.231c-.841-.975-2.068-1.452-3.287-1.273l-30.17 4.402c-2.034.298-3.42 2.287-3.102 4.448z" fill="#04E"/><path d="M175.77 128.603L38.388 148.656 48.75 61.65c.205-1.744 1.478-3.103 3.115-3.341L185.86 38.752c2.44-.358 4.568 1.876 4.256 4.468l-9.579 80.497a5.619 5.619 0 01-4.766 4.885z" fill="#1E87FF"/><path d="M134.391 86.416c-4.15 10.527-15.545 24.879-18.005 27.909-3.056-3.149-21.087-22.261-16.698-31.635 5.833-12.442 15.578-1.982 17.759.604 1.339-1.83 5.29-6.914 9.393-9.022 3.149-1.645 6.384-1.512 8.578 3.208.975 2.088.405 5.29-1.027 8.936z" fill="#fff"/><path d="M148.261 80.296c3.331-5.746 2.206-12.621-2.513-15.358-4.719-2.736-11.245-.297-14.577 5.449-3.331 5.745-2.206 12.621 2.513 15.357 4.72 2.737 11.246.297 14.577-5.448z" fill="#EB1919"/><path d="M141.975 69.983c-1.028-1.28-2.831-.975-3.945.623-.967 1.385-1.935 3.427-2.028 6.145-.066 2.008.378 3.221.981 3.957 1.114 1.353 3.049 1.021 4.322-.603.975-1.24 2.029-3.129 2.108-5.522.08-2.121-.643-3.613-1.438-4.6z" stroke="#fff" stroke-width="1.701" stroke-miterlimit="10"/><path d="M184.05 156.506l-.988 4.494M186.608 144.805l-.981 4.501M188.438 153.695l4.494.981M176.738 151.129l4.501.988" stroke="#02286F" stroke-width="1.701" stroke-miterlimit="10" stroke-linecap="round" stroke-linejoin="round"/><path d="M79.72 32.316s.166-.723.498-1.923" stroke="#02286F" stroke-width="1.701" stroke-linecap="round" stroke-linejoin="round"/><path d="M81.332 26.72c2.545-7.762 8.087-20.755 16.513-19.9 8.438.856 10.759 11.687 18.846 8.386 4.269-1.737 8.24-9.513 10.302-14.206" stroke="#02286F" stroke-width="1.701" stroke-linecap="round" stroke-linejoin="round" stroke-dasharray="4.93 4.93"/><path d="M166.728 36.843l-.617-4.256c-.311-2.16-2.207-3.672-4.236-3.38L69.519 42.523c-.69.1 28.598 2.506 56.009 1.16 21.187-1.047 41.379-5.601 41.2-6.84z" fill="#04E"/><path d="M146.336 17.758l-.205 3.308M146.867 9.16l-.206 3.308M149.147 15.279l3.308.199M140.542 14.748l3.308.2M206.363 140.702a2.937 2.937 0 100-5.874 2.937 2.937 0 000 5.874z" stroke="#02286F" stroke-width="1.701" stroke-miterlimit="10" stroke-linecap="round" stroke-linejoin="round"/></svg>