<svg width="154" height="204" xmlns="http://www.w3.org/2000/svg" xmlns:xlink="http://www.w3.org/1999/xlink"><defs><path id="a" d="M0 0h311v224H0z"/><path id="c" d="M0 .8h122.379V140H0z"/><path id="e" d="M.88.701h127.942V191.9H.88z"/></defs><g transform="translate(-1 -10)" fill="none" fill-rule="evenodd"><mask id="b" fill="#fff"><use xlink:href="#a"/></mask><g mask="url(#b)"><path d="M19.338 47.745C43.702 13.702 83.15.202 107.447 17.591c24.298 17.39 24.244 59.084-.121 93.127-24.364 34.043-63.812 47.543-88.11 30.154-24.297-17.389-24.243-59.084.122-93.127" fill="#C12627"/><g transform="translate(1 58.779)"><mask id="d" fill="#fff"><use xlink:href="#c"/></mask><path d="M.022 42.5s-2.9 49 57.4 97.5c0 0 69.7-67.7 64.7-139.2L.022 42.5z" fill="#C12627" mask="url(#d)"/></g><path d="M42.522 75.379l50.4-43.6-33.2-17c-14.7 5.9-29.2 17.3-40.5 33-2.8 4-5.3 8.1-7.5 12.2l30.8 15.4z" fill="#ED4343"/><path d="M100.222 13.58c.3.1 26.9 12.9 26.9 12.9l-12.8 6-27.3 6.2-1.6-6.4 14.8-18.7zm-41.8 185.299l31 14.9-17.8-26.4-8.8 2.5z" fill="#C12627"/><path d="M154.522 70.08c-.7-15.5-9.8-31.9-21.1-40-24.3-17.4-63.7-3.9-88.1 30.1-11.3 15.8-17.4 33.3-18.2 49.2 0 0-7.6 44.7 62.3 104.3 0 .1 70.1-72.1 65.1-143.6" fill="#F9645C"/><g transform="translate(26 21.779)"><mask id="f" fill="#fff"><use xlink:href="#e"/></mask><path d="M3.222 88.5c.8-15.9 6.8-33.3 17.9-49.1 23.9-34 62.7-47.4 86.6-30.1 11.2 8.1 20.1 24.5 20.8 39.9.1 2.2.2 4.3.3 6.5 0-2.5-.1-5-.3-7.4-.7-15.5-9.8-31.9-21.1-40-24.3-17.4-63.7-3.9-88.1 30.1-11.3 15.8-17.4 33.3-18.2 49.2 0 0-7.6 44.7 62.3 104.3 0 0 .1-.1.1-.2-67.7-59-60.3-103.2-60.3-103.2" fill="#FF8683" mask="url(#f)"/></g><path d="M62.505 80.657C73.744 55.79 97.031 42.381 114.518 50.71c17.486 8.327 22.55 35.238 11.31 60.106-11.239 24.868-34.526 38.277-52.012 29.95-17.487-8.329-22.551-35.24-11.311-60.108" fill="#AF1E23"/><path d="M62.623 80.763c-9.433 20.826-7.37 43.12 3.814 54.694 14.675 1.156 31.193-10.682 39.97-29.984 10.114-22.243 6.18-46.34-8.524-55.14a23.162 23.162 0 00-2.557-.796C82.603 53.047 70.02 64.43 62.623 80.763" fill="#FFF"/></g></g></svg>